<?xml version="1.0" standalone="no"?>
<!DOCTYPE svg PUBLIC "-//W3C//DTD SVG 20010904//EN"
 "http://www.w3.org/TR/2001/REC-SVG-20010904/DTD/svg10.dtd">
<svg version="1.0" xmlns="http://www.w3.org/2000/svg"
 width="185.000000pt" height="39.000000pt" viewBox="0 0 185.000000 39.000000"
 preserveAspectRatio="xMidYMid meet">

<g transform="translate(0.000000,39.000000) scale(0.100000,-0.100000)"
fill="#000000" stroke="none">
<path d="M114 300 c-41 -16 -64 -59 -64 -116 0 -45 5 -59 29 -86 27 -31 34
-33 91 -33 56 0 64 3 86 29 30 34 27 47 -11 58 -23 6 -32 3 -42 -12 -18 -26
-59 -26 -73 -1 -35 67 24 145 73 96 15 -14 77 -11 77 4 -1 12 -35 49 -57 60
-25 13 -79 13 -109 1z"/>
<path d="M880 185 l0 -125 95 0 95 0 0 30 0 30 -60 0 -60 0 0 95 0 95 -35 0
-35 0 0 -125z"/>
<path d="M1670 266 l0 -44 -30 11 c-64 24 -114 -38 -91 -115 15 -48 48 -67 92
-51 16 6 29 7 29 2 0 -5 16 -9 35 -9 l35 0 0 125 0 125 -35 0 c-35 0 -35 0
-35 -44z m-5 -96 c10 -33 -4 -62 -28 -58 -22 3 -34 35 -23 64 8 21 44 17 51
-6z"/>
<path d="M355 229 c-33 -19 -45 -41 -45 -81 0 -63 51 -97 124 -84 46 9 71 39
71 87 0 52 -29 80 -86 85 -24 3 -53 -1 -64 -7z m73 -51 c17 -17 15 -43 -4 -59
-31 -26 -70 25 -44 56 15 18 32 19 48 3z"/>
<path d="M530 233 c0 -3 11 -21 25 -39 14 -18 25 -36 25 -39 0 -4 -14 -26 -30
-51 l-31 -44 39 0 c31 0 41 5 52 25 7 14 16 25 20 25 4 0 13 -11 20 -25 11
-20 21 -25 52 -25 l39 0 -31 46 -32 45 26 39 c14 22 26 42 26 45 0 3 -15 5
-34 5 -24 0 -38 -7 -49 -22 l-16 -23 -16 23 c-11 15 -26 22 -51 22 -19 0 -34
-3 -34 -7z"/>
<path d="M1140 233 c-16 -6 -40 -32 -40 -44 0 -13 50 -19 69 -8 10 7 26 9 37
5 18 -8 18 -8 -1 -17 -11 -4 -39 -13 -62 -19 -49 -12 -64 -41 -37 -71 19 -21
64 -25 97 -8 16 9 22 9 25 0 2 -6 17 -11 33 -11 l29 0 0 65 c0 57 -3 69 -25
90 -18 19 -34 25 -67 24 -24 0 -50 -3 -58 -6z m78 -105 c-5 -15 -58 -24 -58
-9 0 9 20 17 48 20 8 0 12 -5 10 -11z"/>
<path d="M1330 150 l0 -90 30 0 c28 0 29 1 32 56 2 40 8 60 20 68 25 15 31 3
36 -64 4 -58 5 -60 33 -60 l29 0 0 73 c0 59 -4 77 -18 90 -21 19 -54 22 -83 7
-13 -7 -19 -7 -19 0 0 5 -13 10 -30 10 l-30 0 0 -90z"/>
</g>
</svg>
